<svg width="1218" height="849" viewBox="0 0 1218 849" fill="none" xmlns="http://www.w3.org/2000/svg">
<path d="M812.696 439.993C815.505 359.256 781.418 281.142 718.488 230.377C659.117 182.235 608.361 107.492 643.572 0.904533C699.01 -166.938 885.552 -98.9394 1108.24 -59.0393C1315.57 -21.9491 1415.21 217.077 1296.66 391.289C1195.52 539.837 1072.28 652.044 955.599 625.257C836.856 597.908 810.074 515.298 812.696 439.993Z" fill="#E2E2F7"/>
<path d="M1108.99 690.259C1097 690.259 1085.39 688.947 1073.78 686.325C1019.47 673.961 980.134 648.86 956.535 611.582C937.806 581.985 929.004 544.708 930.689 500.874H930.876H930.689C933.499 419.762 898.475 341.273 836.482 291.445C802.02 263.534 777.298 232.25 763.438 198.532C746.02 156.384 745.458 110.302 761.565 61.5977C783.291 -4.34049 826.555 -38.2462 897.351 -45.1772C961.592 -51.3589 1040.63 -35.4364 1132.21 -16.8912C1162.74 -10.7095 1194.21 -4.34049 1226.42 1.46657C1251.71 5.96236 1276.05 13.6427 1298.9 24.3202C1320.82 34.4357 1341.42 47.5484 1359.96 62.909C1395.92 92.5063 1424.58 131.282 1442.93 174.742C1461.28 218.388 1468.96 266.343 1465.03 312.987C1462.97 337.152 1457.91 361.13 1449.67 383.983C1441.24 407.773 1429.63 430.627 1415.21 451.982C1360.15 532.719 1304.71 594.349 1250.39 634.811C1200.95 671.901 1153.57 690.259 1108.99 690.259ZM927.131 -45.7392C916.83 -45.7392 906.903 -45.3646 897.351 -44.4279C826.743 -37.6842 783.666 -3.77852 761.94 61.9724C725.605 172.119 782.542 247.424 836.669 291.258C867.385 316.172 892.294 348.579 908.402 384.92C924.509 421.073 932.375 461.161 930.876 501.061C928.442 569.996 951.291 657.852 1073.59 685.95C1128.09 698.501 1187.47 681.267 1249.83 634.623C1304.15 594.161 1359.59 532.719 1414.46 451.982C1470.27 369.934 1480.58 266.531 1442.18 175.116C1403.97 84.0767 1323.25 19.4497 1226.23 2.21586C1194.02 -3.59119 1162.37 -9.96023 1132.03 -16.1419C1054.3 -31.8772 985.378 -45.7392 927.131 -45.7392Z" fill="white"/>
<path d="M358.89 848.173C346.903 848.173 335.291 846.862 323.679 844.239C269.365 831.876 230.033 806.775 206.435 769.497C187.706 739.9 178.903 702.622 180.589 658.788H180.776H180.589C183.585 577.677 148.375 499.375 86.5685 449.359C52.1069 421.448 27.3845 390.165 13.525 356.446C-3.89312 314.298 -4.455 268.217 11.652 219.512C33.3778 153.574 76.6421 119.668 147.438 112.737C211.679 106.556 290.716 122.478 382.301 141.023C412.83 147.205 444.294 153.574 476.509 159.381C501.793 163.877 526.141 171.557 548.99 182.235C570.903 192.35 591.505 205.463 610.047 220.824C646.007 250.421 674.663 289.197 693.017 332.656C711.372 376.303 719.051 424.258 715.117 470.902C713.057 495.067 708 519.044 699.76 541.898C691.332 565.688 679.719 588.542 665.298 609.897C610.234 690.633 554.796 752.263 500.482 792.725C451.037 829.628 403.652 848.173 358.89 848.173ZM177.217 111.988C166.916 111.988 156.99 112.363 147.438 113.299C76.8293 120.043 33.7524 153.949 12.0266 219.7C-24.3079 329.846 32.6286 405.151 86.7558 448.985C117.472 473.899 142.381 506.306 158.488 542.647C174.595 578.801 182.462 618.888 180.963 658.788C178.528 727.724 201.378 815.579 323.679 843.677C378.181 856.228 437.552 838.994 499.92 792.351C554.234 751.888 609.673 690.446 664.549 609.709C720.362 527.661 730.663 424.258 692.268 332.844C654.061 241.804 573.338 177.177 476.321 159.943C444.107 154.136 412.455 147.767 382.114 141.585C304.388 125.85 235.465 111.988 177.217 111.988Z" fill="#E5E5E5"/>
</svg>
